<svg width="111" height="98" viewBox="0 0 111 98" fill="none" xmlns="http://www.w3.org/2000/svg">
<path fill-rule="evenodd" clip-rule="evenodd" d="M2.8 84.2C2.8 84.2 2.8 84.2 2.8 94.2C2.8 94.5 3 94.8 3.4 94.8C3.4 94.8 3.4 94.8 107.5 94.8C107.8 94.8 108.1 94.5 108.1 94.2C108.1 94.2 108.1 94.2 108.1 84.2C108.1 84.2 108.1 84.2 2.8 84.2ZM55.7 62.6C49 62.6 43.5 67.8 43.2 74.5H68.2C67.8 67.8 62.4 62.6 55.7 62.6ZM72.8 58.2C69.3 58.2 66.1 60.4 64.8 63.6C65.8 64.4 66.8 65.4 67.6 66.5C67.6 66.5 67.6 66.5 81.3 66.5C81.3 61.9 77.5 58.2 72.8 58.2ZM38.1 58.2C33.5 58.2 29.6 61.9 29.5 66.6C29.5 66.6 29.5 66.6 43.7 66.6C44.4 65.6 45.2 64.7 46.2 64C44.9 60.5 41.7 58.2 38.1 58.2ZM38.1 55.9C42.4 55.9 46.3 58.6 48 62.5C50.2 61.1 52.9 60.3 55.7 60.3C58.4 60.3 60.9 61 63 62.3C64.7 58.5 68.6 55.9 72.8 55.9C78.7 55.9 83.6 60.8 83.6 66.8V68.8C83.6 68.8 83.6 68.8 68.9 68.8C69.8 70.7 70.4 72.9 70.4 75.2C70.4 75.2 70.4 75.2 70.4 76.8C70.4 76.8 70.4 76.8 40.9 76.8C40.9 76.8 40.9 76.8 40.9 75.2C40.9 72.9 41.4 70.7 42.4 68.8C42.4 68.8 42.4 68.8 27.3 68.8C27.3 68.8 27.3 68.8 27.3 66.8C27.3 60.8 32.1 55.9 38.1 55.9ZM72.8 45.7C71 45.7 69.5 47.2 69.5 49C69.5 50.8 71 52.3 72.8 52.3C74.6 52.3 76.1 50.8 76.1 49C76.1 47.2 74.6 45.7 72.8 45.7ZM38.1 45.7C36.3 45.7 34.8 47.2 34.8 49C34.8 50.8 36.3 52.3 38.1 52.3C39.9 52.3 41.4 50.8 41.4 49C41.3 47.2 39.8 45.7 38.1 45.7ZM55.7 45.7C52.7 45.7 50.2 48.2 50.2 51.2C50.2 54.3 52.7 56.7 55.7 56.7C58.7 56.7 61.2 54.2 61.2 51.2C61.1 48.2 58.6 45.7 55.7 45.7ZM72.8 43.5C75.8 43.5 78.3 46 78.3 49.1C78.3 52.2 75.8 54.7 72.8 54.7C69.8 54.7 67.3 52.2 67.3 49.1C67.3 46 69.8 43.5 72.8 43.5ZM55.7 43.5C59.9 43.5 63.4 47 63.4 51.3C63.4 55.6 60 59.1 55.7 59.1C51.4 59.1 48 55.6 48 51.3C47.9 47 51.4 43.5 55.7 43.5ZM38.1 43.5C41.1 43.5 43.6 46 43.6 49.1C43.6 52.2 41.1 54.7 38.1 54.7C35 54.7 32.6 52.2 32.6 49.1C32.5 46 35 43.5 38.1 43.5ZM2.8 36.5V81.5C2.8 81.5 2.8 81.5 108.1 81.5C108.1 81.5 108.1 81.5 108.1 36.5C108.1 36.5 108.1 36.5 2.8 36.5ZM3.4 23.4C3.1 23.4 2.8 23.6 2.8 24C2.8 24 2.8 24 2.8 33.7C2.8 33.7 2.8 33.7 108.1 33.7C108.1 33.7 108.1 33.7 108.1 24C108.1 23.7 107.8 23.4 107.5 23.4C107.4 23.4 107.4 23.4 3.4 23.4ZM3.4 20.6C3.4 20.6 3.4 20.6 107.5 20.6C109.4 20.6 110.9 22.1 110.9 24C110.9 24 110.9 24 110.9 94.2C110.9 96 109.4 97.6 107.5 97.6C107.5 97.6 107.5 97.6 3.4 97.6C1.5 97.6 0 96 0 94.2C0 94.2 0 94.2 0 24C0 22.1 1.5 20.6 3.4 20.6ZM55.9 6.9C54.9 6.9 54.1 7.7 54.1 8.7C54.1 9.7 54.9 10.6 55.9 10.6C56.9 10.6 57.7 9.8 57.7 8.7C57.7 7.7 56.9 6.9 55.9 6.9ZM55.9 4.1C58.4 4.1 60.5 6.2 60.5 8.7C60.5 11.3 58.4 13.3 55.9 13.3C53.4 13.3 51.3 11.2 51.3 8.7C51.3 6.2 53.3 4.1 55.9 4.1ZM40.6 2.8V14.8C40.6 14.8 40.6 14.8 71 14.8C71 14.8 71 14.8 71 2.8C71.1 2.8 71.1 2.8 40.6 2.8ZM39.2 0C39.2 0 39.2 0 72.4 0C73.1 0 73.8 0.6 73.8 1.4C73.8 1.4 73.8 1.4 73.8 16.1C73.8 16.9 73.2 17.5 72.4 17.5C72.4 17.5 72.4 17.5 39.2 17.5C38.5 17.5 37.8 16.9 37.8 16.1C37.8 16.1 37.8 16.1 37.8 1.4C37.9 0.6 38.5 0 39.2 0Z" fill="currentColor"/>
</svg>
