<svg width="113" height="91" viewBox="0 0 113 91" fill="none" xmlns="http://www.w3.org/2000/svg">
<path fill-rule="evenodd" clip-rule="evenodd" d="M83.4 69.9C83.4 69.9 83.4 69.9 87.9 69.9C88.7 69.9 89.4 70.6 89.4 71.4C89.4 72.2 88.8 72.9 88 72.9C88 72.9 88 72.9 83.5 72.9C82.7 72.9 82.1 72.2 82.1 71.4C82 70.7 82.6 70 83.4 69.9ZM68.8 69.9C68.8 69.9 68.8 69.9 73 69.9C73.8 69.9 74.4 70.5 74.4 71.3C74.4 72.1 73.8 72.7 73 72.7C73 72.7 73 72.7 68.8 72.7C68 72.7 67.4 72.1 67.4 71.3C67.4 70.6 68 70 68.8 69.9ZM54.2 69.9C54.2 69.9 54.2 69.9 58.4 69.9C59.2 69.9 59.9 70.5 59.9 71.3C59.9 72.1 59.2 72.7 58.4 72.7C58.4 72.7 58.4 72.7 54.2 72.7C53.4 72.7 52.7 72.1 52.7 71.3C52.7 70.6 53.4 70 54.2 69.9ZM87.9 59.5C88.7 59.5 89.4 60.1 89.4 60.9C89.4 61.7 88.8 62.3 88 62.3C88 62.3 88 62.3 83.5 62.3C82.7 62.3 82.1 61.7 82.1 60.9C82.1 60.1 82.7 59.5 83.5 59.5C83.4 59.6 83.4 59.6 87.9 59.5ZM73 59.5C73.8 59.5 74.5 60.1 74.5 60.9C74.5 61.7 73.9 62.3 73.1 62.3C73.1 62.3 73.1 62.3 68.9 62.3C68.1 62.3 67.5 61.7 67.5 60.9C67.5 60.1 68.1 59.5 68.9 59.5C68.8 59.6 68.8 59.6 73 59.5ZM58.4 59.5C59.2 59.5 59.9 60.1 59.9 60.9C59.9 61.7 59.2 62.3 58.4 62.3C58.4 62.3 58.4 62.3 54.2 62.3C53.4 62.3 52.7 61.7 52.7 60.9C52.7 60.1 53.3 59.5 54.1 59.5C54.2 59.6 54.2 59.6 58.4 59.5ZM87.6 48.2C88.4 48.2 89.1 48.8 89.1 49.6C89.1 50.4 88.4 51 87.6 51C87.6 51 87.6 51 83.4 51C82.6 51 82 50.4 82 49.6C82 48.8 82.6 48.2 83.4 48.2C83.4 48.2 83.4 48.2 87.6 48.2ZM73 48.2C73.8 48.2 74.5 48.8 74.5 49.6C74.5 50.4 73.8 51 73 51C73 51 73 51 68.8 51C68 51 67.4 50.4 67.4 49.6C67.4 48.8 68 48.2 68.8 48.2C68.8 48.2 68.8 48.2 73 48.2ZM58.4 48.2C59.2 48.2 59.9 48.8 59.9 49.6C59.9 50.4 59.2 51 58.4 51C58.4 51 58.4 51 54.2 51C53.4 51 52.7 50.4 52.7 49.6C52.7 48.8 53.3 48.2 54.1 48.2C54.2 48.2 54.2 48.2 58.4 48.2ZM55.5 29.1C55.5 29.1 55.5 29.1 55.5 39.2C55.5 39.2 55.5 39.2 87.6 39.2V29.1C87.6 29.1 87.6 29.1 55.5 29.1ZM54.1 26.3C54.1 26.3 54.1 26.3 89.1 26.3C89.9 26.3 90.6 26.9 90.6 27.7C90.6 27.7 90.6 27.7 90.6 40.7C90.6 41.5 89.9 42.1 89.1 42.1C89.1 42.1 89.1 42.1 54.1 42.1C53.3 42.1 52.6 41.5 52.6 40.7C52.6 40.7 52.6 40.7 52.6 27.7C52.6 26.9 53.2 26.3 54.1 26.3ZM8.8 11.7C5.5 11.9 2.9 14.3 2.9 17.5C2.9 17.5 2.9 17.5 2.9 81.8C2.9 85 5.7 87.5 9.2 87.5C9.2 87.5 9.2 87.5 103.5 87.5C106.9 87.5 109.2 85.2 109.2 81.8V17.4C109.2 13.9 106.9 11.6 103.5 11.6C103.5 11.6 103.5 11.6 37.8 11.6C37.8 11.6 37.8 11.6 37.8 72.8C37.8 77.1 33.6 81.4 29.3 81.4C29.3 81.4 29.3 81.4 17 81.4C14.7 81.4 12.5 80.5 11 78.8C9.5 77.1 8.7 75 8.7 72.8C8.8 72.9 8.8 72.9 8.8 11.7ZM17.1 2.9C14 2.9 11.7 5.7 11.7 9.2V72.9C11.7 75.7 13.9 78.6 17.1 78.6C17.1 78.6 17.1 78.6 29.4 78.6C32 78.6 34.9 75.7 34.9 72.9C34.9 72.9 34.9 72.9 34.9 9.2C34.9 5.7 31.9 2.9 29.4 2.9C29.4 2.9 29.4 2.9 17.1 2.9ZM17.1 0C17.1 0 17.1 0 29.4 0C33.7 0 37.6 4.1 37.8 8.8C37.8 8.8 37.8 8.8 103.6 8.8C108.6 8.8 112.3 12.5 112.3 17.5C112.3 17.5 112.3 17.5 112.3 81.8C112.3 86.8 108.7 90.4 103.6 90.4C103.6 90.4 103.6 90.4 9.3 90.4C4 90.3 0 86.5 0 81.7C0 81.7 0 81.7 0 17.4C0 12.7 3.8 9 8.8 8.8C8.9 3.8 12.5 0 17.1 0Z" fill="currentColor"/>
</svg>
